# xmcd
#
# Track frame offsets:
#	150
#	18589
#	37932
#	56418
#	76074
#	95720
#	113407
#	128428
#	145717
#	160173
#	176416
#	190238
#	207745
#	221733
#	237882
#	253436
#	269062
#	286007
#	303982
#	321988
#	336199
#
# Disc length: 4702 seconds
#
# Revision: 0
# Processed by: cddbd v1.5.1PL0 Copyright (c) Steve Scherf et al.
# Submitted via: dBpowerAMP V4.0
#
DISCID=2f125c15
DTITLE=misc - country mix
DYEAR=1900
DGENRE=
TTITLE0=i go back
TTITLE1=real good man
TTITLE2=cowboy in me
TTITLE3=friends in low places
TTITLE4=whiskey lullaby
TTITLE5=5 oclock somewhere
TTITLE6=here for the party
TTITLE7=how im doin
TTITLE8=rough n ready
TTITLE9=mexico
TTITLE10=10rounds of jose cuervo
TTITLE11=suds in the bucket
TTITLE12=men dont change
TTITLE13=girls lie too
TTITLE14=thats what its all about
TTITLE15=feels like today
TTITLE16=paint me a birmingham
TTITLE17=i hate everything
TTITLE18=she think she needs me
TTITLE19=too much of a good thing
TTITLE20=moments
EXTD=
EXTT0=
EXTT1=
EXTT2=
EXTT3=
EXTT4=
EXTT5=
EXTT6=
EXTT7=
EXTT8=
EXTT9=
EXTT10=
EXTT11=
EXTT12=
EXTT13=
EXTT14=
EXTT15=
EXTT16=
EXTT17=
EXTT18=
EXTT19=
EXTT20=
PLAYORDER=
